<svg width="36" height="36" viewBox="0 0 36 36" fill="none" xmlns="http://www.w3.org/2000/svg">
<path d="M3.82279 4.94995H2.08901C1.93008 4.94995 1.80005 5.08342 1.80005 5.24654V30.7534C1.80005 30.9165 1.93008 31.0499 2.08901 31.0499H3.82279C3.98172 31.0499 4.11175 30.9165 4.11175 30.7534V5.24654C4.11175 5.08342 3.98172 4.94995 3.82279 4.94995ZM33.9111 4.94995H32.1773C32.0184 4.94995 31.8883 5.08342 31.8883 5.24654V30.7534C31.8883 30.9165 32.0184 31.0499 32.1773 31.0499H33.9111C34.07 31.0499 34.2001 30.9165 34.2001 30.7534V5.24654C34.2001 5.08342 34.07 4.94995 33.9111 4.94995ZM6.71242 26.3045H10.7579C10.9168 26.3045 11.0469 26.171 11.0469 26.0079V5.24654C11.0469 5.08342 10.9168 4.94995 10.7579 4.94995H6.71242C6.55349 4.94995 6.42346 5.08342 6.42346 5.24654V26.0079C6.42346 26.171 6.55349 26.3045 6.71242 26.3045ZM18.3071 26.3045H20.0409C20.1998 26.3045 20.3298 26.171 20.3298 26.0079V5.24654C20.3298 5.08342 20.1998 4.94995 20.0409 4.94995H18.3071C18.1481 4.94995 18.0181 5.08342 18.0181 5.24654V26.0079C18.0181 26.171 18.1481 26.3045 18.3071 26.3045ZM22.8582 26.3045H29.2877C29.4466 26.3045 29.5766 26.171 29.5766 26.0079V5.24654C29.5766 5.08342 29.4466 4.94995 29.2877 4.94995H22.8582C22.6993 4.94995 22.5693 5.08342 22.5693 5.24654V26.0079C22.5693 26.171 22.6993 26.3045 22.8582 26.3045ZM13.6475 26.3045H15.3813C15.5403 26.3045 15.6703 26.171 15.6703 26.0079V5.24654C15.6703 5.08342 15.5403 4.94995 15.3813 4.94995H13.6475C13.4886 4.94995 13.3586 5.08342 13.3586 5.24654V26.0079C13.3586 26.171 13.4886 26.3045 13.6475 26.3045ZM10.794 28.6772H6.74854C6.58961 28.6772 6.45958 28.8107 6.45958 28.9738V30.7534C6.45958 30.9165 6.58961 31.0499 6.74854 31.0499H10.794C10.953 31.0499 11.083 30.9165 11.083 30.7534V28.9738C11.083 28.8107 10.953 28.6772 10.794 28.6772ZM20.077 28.6772H18.3432C18.1843 28.6772 18.0542 28.8107 18.0542 28.9738V30.7534C18.0542 30.9165 18.1843 31.0499 18.3432 31.0499H20.077C20.2359 31.0499 20.3659 30.9165 20.3659 30.7534V28.9738C20.3659 28.8107 20.2359 28.6772 20.077 28.6772ZM29.3238 28.6772H22.8944C22.7354 28.6772 22.6054 28.8107 22.6054 28.9738V30.7534C22.6054 30.9165 22.7354 31.0499 22.8944 31.0499H29.3238C29.4827 31.0499 29.6128 30.9165 29.6128 30.7534V28.9738C29.6128 28.8107 29.4827 28.6772 29.3238 28.6772ZM15.4174 28.6772H13.6837C13.5247 28.6772 13.3947 28.8107 13.3947 28.9738V30.7534C13.3947 30.9165 13.5247 31.0499 13.6837 31.0499H15.4174C15.5764 31.0499 15.7064 30.9165 15.7064 30.7534V28.9738C15.7064 28.8107 15.5764 28.6772 15.4174 28.6772Z" fill="currentColor"/>
</svg>
