<svg width="72" height="72" viewBox="0 0 72 72" fill="none" xmlns="http://www.w3.org/2000/svg">
<path d="M23.5692 52.7734C22.8749 50.6068 22.5 48.2972 22.5 45.9C22.5 42.9316 23.5424 39.9078 24.812 37.2403C26.1164 34.4997 27.859 31.7308 29.674 29.1693C32.2981 25.4659 35.2152 21.9993 37.5217 19.4118C34.3468 15.1436 30.9117 11.3224 28.8591 9.13352C27.8408 8.04753 26.1592 8.04753 25.1409 9.13352C20.5415 14.0384 9 27.1397 9 35.1C9 43.8679 15.269 51.1717 23.5692 52.7734Z" fill="#BCED78"/>
<path d="M63 45.9C63 55.8411 54.9411 63.9 45 63.9C35.0589 63.9 27 55.8411 27 45.9C27 37.9397 38.5415 24.8384 43.1409 19.9335C44.1592 18.8475 45.8408 18.8475 46.8591 19.9335C51.4585 24.8384 63 37.9397 63 45.9Z" fill="#74D118"/>
<path fill-rule="evenodd" clip-rule="evenodd" d="M55.7036 46.4984C56.8642 46.9424 57.4453 48.2431 57.0014 49.4037C55.4958 53.3401 52.4399 56.396 48.5036 57.9015C47.343 58.3454 46.0422 57.7644 45.5983 56.6037C45.1544 55.4431 45.7354 54.1424 46.8961 53.6984C49.6376 52.6499 51.7497 50.5378 52.7983 47.7962C53.2422 46.6356 54.543 46.0545 55.7036 46.4984Z" fill="#BCED78"/>
</svg>
