<svg width="40" height="40" viewBox="0 0 40 40" fill="none" xmlns="http://www.w3.org/2000/svg">
<path fill-rule="evenodd" clip-rule="evenodd" d="M20.6295 3.22387C20.262 2.92536 19.7357 2.92538 19.3683 3.22391L3.36938 16.2239C3.13569 16.4138 3 16.6989 3 17V36C3 36.5523 3.44772 37 4 37H15C15.5523 37 16 36.5523 16 36V29C16 26.7909 17.7909 25 20 25C22.2091 25 24 26.7909 24 29V36C24 36.5523 24.4477 37 25 37H35.9999C36.5522 37 36.9999 36.5523 36.9999 36V17C36.9999 16.6989 36.8642 16.4138 36.6305 16.2239L20.6295 3.22387Z" fill="currentColor"/>
</svg>
