<svg width="72" height="72" viewBox="0 0 72 72" fill="none" xmlns="http://www.w3.org/2000/svg">
<path d="M3.59961 36C3.59961 22.0825 14.882 10.8 28.7996 10.8H43.1996C57.1172 10.8 68.3996 22.0825 68.3996 36C68.3996 49.9176 57.1172 61.2001 43.1996 61.2001H28.7996C14.882 61.2001 3.59961 49.9176 3.59961 36Z" fill="#BCED78"/>
<path fill-rule="evenodd" clip-rule="evenodd" d="M40.0888 21.0848C41.3674 21.852 41.7821 23.5105 41.0149 24.7891L36.8603 31.7135C36.672 32.0272 36.6925 32.4238 36.912 32.7165L39.4072 36.0435C40.9441 38.0927 41.0873 40.8684 39.7695 43.0648L35.6149 49.9891C34.8477 51.2678 33.1892 51.6824 31.9105 50.9152C30.6318 50.148 30.2172 48.4895 30.9844 47.2109L35.139 40.2865C35.3273 39.9728 35.3068 39.5762 35.0872 39.2835L32.592 35.9565C31.0551 33.9073 30.9119 31.1316 32.2298 28.9352L36.3844 22.0109C37.1516 20.7322 38.8101 20.3176 40.0888 21.0848ZM54.4888 21.0848C55.7674 21.852 56.1821 23.5105 55.4149 24.7891L51.2603 31.7135C51.072 32.0272 51.0925 32.4238 51.312 32.7165L53.8072 36.0435C55.3441 38.0927 55.4873 40.8684 54.1695 43.0648L50.0149 49.9891C49.2477 51.2678 47.5892 51.6824 46.3105 50.9152C45.0318 50.148 44.6172 48.4895 45.3844 47.2109L49.539 40.2865C49.7273 39.9728 49.7068 39.5762 49.4872 39.2835L46.992 35.9565C45.4551 33.9073 45.3119 31.1316 46.6298 28.9352L50.7844 22.0109C51.5516 20.7322 53.2101 20.3176 54.4888 21.0848ZM25.6888 21.0848C26.9674 21.852 27.3821 23.5105 26.6149 24.7891L22.4603 31.7135C22.272 32.0272 22.2925 32.4238 22.512 32.7165L25.0072 36.0435C26.5441 38.0927 26.6873 40.8684 25.3695 43.0648L21.2149 49.9891C20.4477 51.2678 18.7892 51.6824 17.5105 50.9152C16.2318 50.148 15.8172 48.4895 16.5844 47.2109L20.739 40.2865C20.9273 39.9728 20.9068 39.5762 20.6872 39.2835L18.192 35.9565C16.6551 33.9073 16.5119 31.1316 17.8298 28.9352L21.9844 22.0109C22.7516 20.7322 24.4101 20.3176 25.6888 21.0848Z" fill="#5FBE00"/>
</svg>
