<svg width="72" height="72" viewBox="0 0 72 72" fill="none" xmlns="http://www.w3.org/2000/svg">
<path d="M19.817 32.1826C20.3637 31.8724 21.0371 31.8724 21.5837 32.1826L35.117 39.8642C35.6637 40.1745 36.0004 40.7479 36.0004 41.3684V56.7315C36.0004 57.352 35.6637 57.9254 35.117 58.2357L21.5837 65.9173C21.0371 66.2275 20.3637 66.2275 19.817 65.9173L6.28374 58.2357C5.73712 57.9254 5.40039 57.352 5.40039 56.7315V41.3684C5.40039 40.7479 5.73712 40.1745 6.28374 39.8642L19.817 32.1826Z" fill="#74D118"/>
<path d="M50.4166 32.1826C50.9633 31.8724 51.6367 31.8724 52.1833 32.1826L65.7167 39.8642C66.2633 40.1745 66.6 40.7479 66.6 41.3684V56.7315C66.6 57.352 66.2633 57.9254 65.7167 58.2357L52.1833 65.9173C51.6367 66.2275 50.9633 66.2275 50.4167 65.9173L36.8833 58.2357C36.3367 57.9254 36 57.352 36 56.7315V41.3684C36 40.7479 36.3367 40.1745 36.8833 39.8642L50.4166 32.1826Z" fill="#BCED78"/>
<path d="M35.1178 6.08267C35.6644 5.77241 36.3379 5.77241 36.8845 6.08267L50.4178 13.7642C50.9644 14.0745 51.3012 14.6479 51.3012 15.2684V30.6315C51.3012 31.2521 50.9644 31.8255 50.4178 32.1357L36.8845 39.8173C36.3379 40.1275 35.6644 40.1275 35.1178 39.8173L21.5845 32.1357C21.0379 31.8255 20.7012 31.2521 20.7012 30.6315V15.2684C20.7012 14.6479 21.0379 14.0745 21.5845 13.7642L35.1178 6.08267Z" fill="#5AA70D"/>
</svg>
