<svg width="72" height="72" viewBox="0 0 72 72" fill="none" xmlns="http://www.w3.org/2000/svg">
<path d="M3.59961 36C3.59961 22.0825 14.882 10.8 28.7996 10.8H43.1996C57.1172 10.8 68.3996 22.0825 68.3996 36C68.3996 49.9176 57.1172 61.2001 43.1996 61.2001H28.7996C14.882 61.2001 3.59961 49.9176 3.59961 36Z" fill="#BCED78"/>
<path d="M36 10.8H43.2C57.1176 10.8 68.4 22.0825 68.4 36C68.4 49.9176 57.1176 61.2001 43.2 61.2001H36V10.8Z" fill="#74D118"/>
<path opacity="0.7" fill-rule="evenodd" clip-rule="evenodd" d="M21.6004 26.1C23.0916 26.1 24.3004 24.8911 24.3004 23.4C24.3004 21.9088 23.0916 20.7 21.6004 20.7C20.1092 20.7 18.9004 21.9088 18.9004 23.4C18.9004 24.8911 20.1092 26.1 21.6004 26.1ZM38.7004 23.4C38.7004 24.8911 37.4916 26.1 36.0004 26.1C34.5092 26.1 33.3004 24.8911 33.3004 23.4C33.3004 21.9088 34.5092 20.7 36.0004 20.7C37.4916 20.7 38.7004 21.9088 38.7004 23.4ZM53.1004 23.4C53.1004 24.8911 51.8916 26.1 50.4004 26.1C48.9092 26.1 47.7004 24.8911 47.7004 23.4C47.7004 21.9088 48.9092 20.7 50.4004 20.7C51.8916 20.7 53.1004 21.9088 53.1004 23.4ZM38.7004 36C38.7004 37.4911 37.4916 38.7 36.0004 38.7C34.5092 38.7 33.3004 37.4911 33.3004 36C33.3004 34.5088 34.5092 33.2999 36.0004 33.2999C37.4916 33.2999 38.7004 34.5088 38.7004 36ZM36.0004 51.2999C37.4916 51.2999 38.7004 50.0911 38.7004 48.6C38.7004 47.1088 37.4916 45.9 36.0004 45.9C34.5092 45.9 33.3004 47.1088 33.3004 48.6C33.3004 50.0911 34.5092 51.2999 36.0004 51.2999ZM53.1004 36C53.1004 37.4911 51.8916 38.7 50.4004 38.7C48.9092 38.7 47.7004 37.4911 47.7004 36C47.7004 34.5088 48.9092 33.2999 50.4004 33.2999C51.8916 33.2999 53.1004 34.5088 53.1004 36ZM50.4004 51.2999C51.8916 51.2999 53.1004 50.0911 53.1004 48.6C53.1004 47.1088 51.8916 45.9 50.4004 45.9C48.9092 45.9 47.7004 47.1088 47.7004 48.6C47.7004 50.0911 48.9092 51.2999 50.4004 51.2999ZM24.3004 36C24.3004 37.4911 23.0916 38.7 21.6004 38.7C20.1092 38.7 18.9004 37.4911 18.9004 36C18.9004 34.5088 20.1092 33.2999 21.6004 33.2999C23.0916 33.2999 24.3004 34.5088 24.3004 36ZM21.6004 51.2999C23.0916 51.2999 24.3004 50.0911 24.3004 48.6C24.3004 47.1088 23.0916 45.9 21.6004 45.9C20.1092 45.9 18.9004 47.1088 18.9004 48.6C18.9004 50.0911 20.1092 51.2999 21.6004 51.2999Z" fill="#5AA70D"/>
</svg>
