<svg width="72" height="72" viewBox="0 0 72 72" fill="none" xmlns="http://www.w3.org/2000/svg">
<path d="M23.6057 34.6516C26.4029 39.4964 25.8787 45.0356 22.435 47.0238C18.9913 49.0121 13.9321 46.6964 11.135 41.8516C8.89517 37.9722 9.20697 29.279 9.42015 25.9688C9.46735 25.2358 10.0499 24.8995 10.7082 25.2251C13.6815 26.6956 21.3659 30.7722 23.6057 34.6516Z" fill="#9EE646"/>
<path d="M61.2169 45.7918C53.837 53.1717 41.8309 53.1307 34.4005 45.7003C26.9701 38.2699 26.9291 26.2638 34.309 18.8839C39.9712 13.2217 57.0574 11.9757 64.7041 11.7024C66.7933 11.6277 68.4731 13.3075 68.3984 15.3967C68.1251 23.0434 66.8791 40.1296 61.2169 45.7918Z" fill="#74D118"/>
<path fill-rule="evenodd" clip-rule="evenodd" d="M48.8495 31.2497C49.7158 32.1161 49.7158 33.5207 48.8495 34.387L19.9863 63.2502C19.1199 64.1166 17.7153 64.1166 16.849 63.2502C15.9826 62.3839 15.9826 60.9793 16.849 60.1129L45.7122 31.2497C46.5785 30.3834 47.9831 30.3834 48.8495 31.2497Z" fill="#5AA70D"/>
</svg>
