<svg width="72" height="72" viewBox="0 0 72 72" fill="none" xmlns="http://www.w3.org/2000/svg">
<path d="M35.9997 5.40002C34.5085 5.40002 33.2997 6.60886 33.2997 8.10002V13.5C33.2997 14.9912 34.5085 16.2 35.9997 16.2C37.4908 16.2 38.6997 14.9912 38.6997 13.5V8.10002C38.6997 6.60886 37.4908 5.40002 35.9997 5.40002Z" fill="#BCED78"/>
<path d="M12.4717 14.2721C11.4423 15.3015 11.4423 16.9706 12.4717 18L16.1996 21.7279C17.229 22.7574 18.8981 22.7574 19.9275 21.7279C20.957 20.6985 20.957 19.0295 19.9275 18L16.1996 14.2721C15.1702 13.2427 13.5011 13.2427 12.4717 14.2721Z" fill="#BCED78"/>
<path d="M55.7996 14.2721C56.829 13.2427 58.4981 13.2427 59.5275 14.2721C60.557 15.3015 60.557 16.9706 59.5275 18L55.7996 21.7279C54.7702 22.7574 53.1011 22.7574 52.0717 21.7279C51.0423 20.6985 51.0423 19.0295 52.0717 18L55.7996 14.2721Z" fill="#BCED78"/>
<path d="M55.7996 41.4018C55.7996 42.6306 55.6877 43.8332 55.4735 45H58.4996C63.9672 45 68.3996 49.4324 68.3996 54.9C68.3996 60.3676 63.9672 64.8 58.4996 64.8H13.4996C8.03199 64.8 3.59961 60.3676 3.59961 54.9C3.59961 49.4324 8.03199 45 13.4996 45H16.5258C16.3115 43.8332 16.1996 42.6306 16.1996 41.4018C16.1996 30.4665 25.0644 21.6018 35.9996 21.6018C46.9348 21.6018 55.7996 30.4665 55.7996 41.4018Z" fill="#BCED78"/>
<ellipse cx="36.0004" cy="41.4018" rx="12.6" ry="12.6" fill="#5FBE00"/>
<circle cx="33.5008" cy="36.9018" r="2.7" fill="#D2F096"/>
</svg>
